<mxfile host="65bd71144e">
    <diagram id="YlPUOk09SXe3pm4yZH4a" name="Page-1">
        <mxGraphModel dx="1626" dy="1144" grid="1" gridSize="10" guides="1" tooltips="1" connect="1" arrows="1" fold="1" page="1" pageScale="1" pageWidth="850" pageHeight="1100" math="0" shadow="0">
            <root>
                <mxCell id="0"/>
                <mxCell id="1" parent="0"/>
                <mxCell id="2" value="" style="rounded=0;whiteSpace=wrap;html=1;" parent="1" vertex="1">
                    <mxGeometry x="40" y="110" width="710" height="420" as="geometry"/>
                </mxCell>
                <mxCell id="3" value="" style="rounded=0;whiteSpace=wrap;html=1;" parent="1" vertex="1">
                    <mxGeometry x="40" y="110" width="710" height="50" as="geometry"/>
                </mxCell>
                <mxCell id="4" value="" style="rounded=0;whiteSpace=wrap;html=1;" parent="1" vertex="1">
                    <mxGeometry x="40" y="160" width="210" height="370" as="geometry"/>
                </mxCell>
                <mxCell id="6" value="&lt;font style=&quot;font-size: 24px;&quot;&gt;Choco&lt;/font&gt;" style="shape=hexagon;perimeter=hexagonPerimeter2;whiteSpace=wrap;html=1;fixedSize=1;" parent="1" vertex="1">
                    <mxGeometry x="400" y="260" width="200" height="140" as="geometry"/>
                </mxCell>
                <mxCell id="7" value="&lt;font style=&quot;font-size: 19px;&quot;&gt;Score&lt;/font&gt;" style="rounded=1;whiteSpace=wrap;html=1;" parent="1" vertex="1">
                    <mxGeometry x="450" y="420" width="120" height="30" as="geometry"/>
                </mxCell>
                <mxCell id="8" value="Tuto" style="rounded=0;whiteSpace=wrap;html=1;fontSize=24;" parent="1" vertex="1">
                    <mxGeometry x="250" y="160" width="500" height="70" as="geometry"/>
                </mxCell>
                <mxCell id="9" value="LOGO" style="rounded=1;whiteSpace=wrap;html=1;fontSize=24;" parent="1" vertex="1">
                    <mxGeometry x="50" y="110" width="90" height="50" as="geometry"/>
                </mxCell>
                <mxCell id="10" value="Title" style="rounded=1;whiteSpace=wrap;html=1;fontSize=24;" parent="1" vertex="1">
                    <mxGeometry x="160" y="110" width="90" height="50" as="geometry"/>
                </mxCell>
                <mxCell id="12" value="Your Bakery Name" style="rounded=1;whiteSpace=wrap;html=1;fontSize=24;" parent="1" vertex="1">
                    <mxGeometry x="520" y="110" width="230" height="50" as="geometry"/>
                </mxCell>
                <mxCell id="13" value="item1" style="rounded=1;whiteSpace=wrap;html=1;fontSize=24;" parent="1" vertex="1">
                    <mxGeometry x="50" y="170" width="120" height="60" as="geometry"/>
                </mxCell>
                <mxCell id="14" value="Btn" style="rounded=1;whiteSpace=wrap;html=1;fontSize=24;" parent="1" vertex="1">
                    <mxGeometry x="180" y="170" width="60" height="60" as="geometry"/>
                </mxCell>
                <mxCell id="17" value="item2" style="rounded=1;whiteSpace=wrap;html=1;fontSize=24;" parent="1" vertex="1">
                    <mxGeometry x="50" y="270" width="120" height="60" as="geometry"/>
                </mxCell>
                <mxCell id="18" value="Btn" style="rounded=1;whiteSpace=wrap;html=1;fontSize=24;" parent="1" vertex="1">
                    <mxGeometry x="180" y="270" width="60" height="60" as="geometry"/>
                </mxCell>
                <mxCell id="19" value="item3" style="rounded=1;whiteSpace=wrap;html=1;fontSize=24;" parent="1" vertex="1">
                    <mxGeometry x="50" y="370" width="120" height="60" as="geometry"/>
                </mxCell>
                <mxCell id="20" value="Btn" style="rounded=1;whiteSpace=wrap;html=1;fontSize=24;" parent="1" vertex="1">
                    <mxGeometry x="180" y="370" width="60" height="60" as="geometry"/>
                </mxCell>
                <mxCell id="23" value="quantity/prod" style="rounded=1;whiteSpace=wrap;html=1;fontSize=24;" parent="1" vertex="1">
                    <mxGeometry x="50" y="240" width="190" height="20" as="geometry"/>
                </mxCell>
                <mxCell id="24" value="quantity/prod" style="rounded=1;whiteSpace=wrap;html=1;fontSize=24;" parent="1" vertex="1">
                    <mxGeometry x="50" y="340" width="190" height="20" as="geometry"/>
                </mxCell>
                <mxCell id="28" value="" style="rounded=0;whiteSpace=wrap;html=1;fontSize=24;" parent="1" vertex="1">
                    <mxGeometry x="335" y="590" width="305" height="450" as="geometry"/>
                </mxCell>
                <mxCell id="29" value="" style="rounded=0;whiteSpace=wrap;html=1;fontSize=24;" parent="1" vertex="1">
                    <mxGeometry x="335" y="590" width="305" height="60" as="geometry"/>
                </mxCell>
                <mxCell id="30" value="Logo" style="rounded=1;whiteSpace=wrap;html=1;fontSize=24;" parent="1" vertex="1">
                    <mxGeometry x="335" y="590" width="75" height="60" as="geometry"/>
                </mxCell>
                <mxCell id="31" value="title" style="rounded=1;whiteSpace=wrap;html=1;fontSize=24;" parent="1" vertex="1">
                    <mxGeometry x="410" y="590" width="75" height="60" as="geometry"/>
                </mxCell>
                <mxCell id="32" value="name" style="rounded=1;whiteSpace=wrap;html=1;fontSize=24;" parent="1" vertex="1">
                    <mxGeometry x="565" y="590" width="75" height="60" as="geometry"/>
                </mxCell>
                <mxCell id="33" value="Choco" style="shape=hexagon;perimeter=hexagonPerimeter2;whiteSpace=wrap;html=1;fixedSize=1;fontSize=24;" parent="1" vertex="1">
                    <mxGeometry x="412.5" y="870" width="152.5" height="110" as="geometry"/>
                </mxCell>
                <mxCell id="35" value="Score" style="rounded=1;whiteSpace=wrap;html=1;fontSize=24;" parent="1" vertex="1">
                    <mxGeometry x="425" y="990" width="130" height="30" as="geometry"/>
                </mxCell>
                <mxCell id="43" style="edgeStyle=none;html=1;exitX=0.5;exitY=1;exitDx=0;exitDy=0;" parent="1" source="37" target="28" edge="1">
                    <mxGeometry relative="1" as="geometry"/>
                </mxCell>
                <mxCell id="37" value="" style="rounded=0;whiteSpace=wrap;html=1;fontSize=24;" parent="1" vertex="1">
                    <mxGeometry x="335" y="660" width="305" height="190" as="geometry"/>
                </mxCell>
                <mxCell id="39" value="item" style="rounded=0;whiteSpace=wrap;html=1;fontSize=24;" parent="1" vertex="1">
                    <mxGeometry x="335" y="660" width="120" height="60" as="geometry"/>
                </mxCell>
                <mxCell id="40" value="btn" style="rounded=0;whiteSpace=wrap;html=1;fontSize=24;" parent="1" vertex="1">
                    <mxGeometry x="335" y="750" width="120" height="50" as="geometry"/>
                </mxCell>
                <mxCell id="42" value="qty" style="rounded=0;whiteSpace=wrap;html=1;fontSize=24;" parent="1" vertex="1">
                    <mxGeometry x="335" y="720" width="120" height="30" as="geometry"/>
                </mxCell>
                <mxCell id="45" value="" style="rounded=1;whiteSpace=wrap;html=1;" vertex="1" parent="1">
                    <mxGeometry x="335" y="800" width="305" height="60" as="geometry"/>
                </mxCell>
                <mxCell id="46" value="Tuto / Random Message" style="text;html=1;strokeColor=none;fillColor=none;align=center;verticalAlign=middle;whiteSpace=wrap;rounded=0;fontSize=17;" vertex="1" parent="1">
                    <mxGeometry x="372.5" y="815" width="235" height="30" as="geometry"/>
                </mxCell>
            </root>
        </mxGraphModel>
    </diagram>
</mxfile>